<?xml version="1.0" standalone="no"?>
<svg viewBox="0 0 200 200" xmlns="http://www.w3.org/2000/svg">
  <path fill="#6C63FF" d="M36.8,-60.5C50.8,-55.7,67.4,-52.1,77.4,-42.2C87.4,-32.3,90.8,-16.2,87.8,-1.8C84.8,12.7,75.3,25.3,67.2,38.5C59.1,51.8,52.5,65.5,41.5,74.9C30.5,84.2,15.3,89.2,-0.2,89.5C-15.6,89.8,-31.3,85.5,-45,77.7C-58.6,70,-70.4,58.7,-77,45.1C-83.7,31.6,-85.2,15.8,-83.1,1.2C-80.9,-13.3,-75.1,-26.6,-66.6,-37.1C-58.2,-47.6,-47.3,-55.3,-35.8,-61.5C-24.2,-67.6,-12.1,-72.3,-0.4,-71.7C11.4,-71.1,22.8,-65.2,36.8,-60.5Z" transform="translate(100 100)" />
</svg>
